<?xml version="1.0" encoding="utf-8"?>
<!-- Generator: Adobe Illustrator 28.3.0, SVG Export Plug-In . SVG Version: 6.00 Build 0)  -->
<svg version="1.1" id="Layer_1" xmlns="http://www.w3.org/2000/svg" xmlns:xlink="http://www.w3.org/1999/xlink" x="0px" y="0px"
	 viewBox="0 0 958.2 241.7" style="enable-background:new 0 0 958.2 241.7;" xml:space="preserve">
<style type="text/css">
	.st0{fill:#32302F;}
</style>
<g>
	<path class="st0" d="M134.6,237.9H-0.5v-4.3c22.1,0,31.8-9.7,31.8-28.8V43.3c0-19.1-9.7-29.4-31.8-29.4v-4h121.7
		c63.9,0,93.3,24.7,93.3,53.5c0,31.8-28.4,46.1-71.5,49.5c47.5,6,86.6,24.1,86.6,60.8C229.5,220.5,173,237.9,134.6,237.9z
		 M110.5,13.8H97.8v97.3c1.3,0,11,0,11,0c27.4,0,40.1-9.7,40.1-49.5C149,28.2,138.3,13.8,110.5,13.8z M111.2,115.5c0,0-10,0-13.4,0
		v92.3c0,20.1,7,26.1,19.7,26.1c26.1,0,41.1-15.4,41.1-60.2C158.7,129.9,144.9,115.5,111.2,115.5z"/>
	<path class="st0" d="M321.5,241.9c-49.8,0-88.9-32.4-88.9-87.6c0-46.8,35.1-86.3,91.3-86.3c38.4,0,62.2,19.1,74.9,59.2l-109.7,16
		c9.4,39.1,29.1,54.8,59.8,54.8c19.7,0,35.1-5.3,53.8-29.1l3.3,2C390.3,210.4,365.6,241.9,321.5,241.9z M308.1,73
		c-16.4,0-21.1,25.1-21.1,45.8c0,9.4,1,16.7,1.3,20.4l50.5-7.7C338.9,94.1,324.8,73,308.1,73z"/>
	<path class="st0" d="M468.6,241.9c-28.4,0-48.5-18.4-48.5-47.5V84.1h-39.5c0,0,30.1-14,58.2-38.1c29.1-25.1,42.5-45.8,42.5-45.8V68
		h42.5l-8,16h-34.4v99.6c0,21.7,11.7,32.4,28.8,32.4c7.7,0,13.4-2.3,20.1-4.7l1.3,3C508,231.8,487.6,241.9,468.6,241.9z"/>
	<path class="st0" d="M576.2,241.9c-28.4,0-48.5-18.4-48.5-47.5V84.1h-39.5c0,0,30.1-14,58.2-38.1c29.1-25.1,42.5-45.8,42.5-45.8V68
		h42.5l-8,16H589v99.6c0,21.7,11.7,32.4,28.8,32.4c7.7,0,13.4-2.3,20.1-4.7l1.3,3C615.7,231.8,595.3,241.9,576.2,241.9z"/>
	<path class="st0" d="M704.6,241.9c-49.8,0-88.9-32.4-88.9-87.6c0-46.8,35.1-86.3,91.3-86.3c38.4,0,62.2,19.1,74.9,59.2l-109.7,16
		c9.4,39.1,29.1,54.8,59.8,54.8c19.7,0,35.1-5.3,53.8-29.1l3.3,2C773.5,210.4,748.7,241.9,704.6,241.9z M691.2,73
		c-16.4,0-21.1,25.1-21.1,45.8c0,9.4,1,16.7,1.3,20.4l50.5-7.7C722,94.1,708,73,691.2,73z"/>
	<path class="st0" d="M890.8,233.5v4.3h-114v-4.3c19.4,0,26.4-7.4,26.4-26.1v-86.3c0-18.7-7-26.1-26.4-26.1v-4.3
		c0,0,19.1-3.3,44.5-11c25.7-8,41.5-15.4,41.5-15.4v49.1c8-24.1,26.1-49.5,48.8-49.5c17.7,0,31.1,12.7,31.1,29.8
		c0,18.1-13.4,28.4-25.1,28.4c-21.1,0-26.4-24.1-36.4-24.1c-8,0-16.7,11-16.7,40.1v69.2C864.4,226.1,871.4,233.5,890.8,233.5z"/>
	<path class="st0" d="M957.7,209.1c0,18.1-15,32.8-33.1,32.8s-33.1-14.7-33.1-32.8s15-32.8,33.1-32.8S957.7,191,957.7,209.1z"/>
</g>
</svg>
