<svg xmlns="http://www.w3.org/2000/svg" width="640" height="240" fill="none"><g clip-path="url(#a)"><path fill="#E6F4EA" d="M0 0h640v240H0z"/><path stroke="#CEEAD6" stroke-linecap="round" stroke-width="3.75" d="M121.516 75.138h435.483M121.516 163.888h435.483"/><path fill="#000" d="M162.511 119.728c-9.556 0-18.384-1.81-26.783-5.377-8.405-3.684-15.819-8.705-22.035-14.921-6.217-6.217-11.237-13.63-14.921-22.035-3.568-8.402-5.377-17.23-5.377-26.787a.274.274 0 1 0-.549 0c0 9.555-1.867 18.382-5.55 26.787-3.57 8.404-8.532 15.818-14.748 22.035-6.215 6.216-13.63 11.236-22.033 14.92-8.403 3.568-17.233 5.378-26.79 5.378a.275.275 0 0 0 0 .549c9.554 0 18.385 1.868 26.79 5.552 8.405 3.571 15.819 8.532 22.033 14.746 6.216 6.218 11.179 13.631 14.748 22.038 3.683 8.401 5.55 17.225 5.55 26.779a.275.275 0 1 0 .549 0c0-9.557 1.809-18.381 5.376-26.779 3.685-8.407 8.705-15.821 14.922-22.038 6.214-6.215 13.627-11.177 22.035-14.747 8.402-3.683 17.229-5.551 26.783-5.551a.274.274 0 1 0 0-.549Z"/><path fill="url(#b)" d="M162.511 119.728c-9.556 0-18.384-1.81-26.783-5.377-8.405-3.684-15.819-8.705-22.035-14.921-6.217-6.217-11.237-13.63-14.921-22.035-3.568-8.402-5.377-17.23-5.377-26.787a.274.274 0 1 0-.549 0c0 9.555-1.867 18.382-5.55 26.787-3.57 8.404-8.532 15.818-14.748 22.035-6.215 6.216-13.63 11.236-22.033 14.92-8.403 3.568-17.233 5.378-26.79 5.378a.275.275 0 0 0 0 .549c9.554 0 18.385 1.868 26.79 5.552 8.405 3.571 15.819 8.532 22.033 14.746 6.216 6.218 11.179 13.631 14.748 22.038 3.683 8.401 5.55 17.225 5.55 26.779a.275.275 0 1 0 .549 0c0-9.557 1.809-18.381 5.376-26.779 3.685-8.407 8.705-15.821 14.922-22.038 6.214-6.215 13.627-11.177 22.035-14.747 8.402-3.683 17.229-5.551 26.783-5.551a.274.274 0 1 0 0-.549Z"/><path stroke="#4285F4" stroke-linecap="round" stroke-width="3.75" d="M179.133 119H613"/><path fill="#34A853" d="M309.029 139.135a6.597 6.597 0 0 1 6.597-6.596v28.584a6.597 6.597 0 0 1-6.597-6.596v-15.392ZM309.029 184.211a6.597 6.597 0 0 1 6.597-6.596v47.275a6.598 6.598 0 0 1-6.597-6.597v-34.082Z"/><rect width="173.708" height="362.807" x="-2.199" y="2.199" fill="#fff" stroke="#34A853" stroke-width="4.398" rx="47.275" transform="matrix(-1 0 0 1 488.432 20.398)"/><circle cx="4.398" cy="4.398" r="4.398" fill="#4285F4" transform="matrix(-1 0 0 1 408.176 34.69)"/><rect width="143.043" height="143.043" x="395.238" y="151.02" fill="#D2E3FC" rx="32.655"/><mask id="c" width="106" height="63" x="416" y="182" maskUnits="userSpaceOnUse" style="mask-type:alpha"><path fill="#34A853" d="M521.162 237.423a53.477 53.477 0 0 0-8.435-18.379 53.681 53.681 0 0 0-5.896-6.941 53.876 53.876 0 0 0-9.494-7.521c.021-.033.04-.07.06-.104l3.241-5.588 3.167-5.459c.758-1.306 1.517-2.614 2.273-3.92a4.91 4.91 0 0 0 .276-4.379 4.87 4.87 0 0 0-2.015-2.312 4.95 4.95 0 0 0-3.019-.665 4.914 4.914 0 0 0-3.748 2.422c-.758 1.305-1.517 2.614-2.273 3.92l-3.167 5.458c-1.079 1.864-2.161 3.725-3.24 5.589l-.355.612c-.164-.065-.325-.13-.49-.193a53.69 53.69 0 0 0-19.156-3.508 53.659 53.659 0 0 0-17.696 2.977 47.92 47.92 0 0 0-1.848.685c-.11-.19-.222-.38-.331-.571-1.079-1.863-2.161-3.724-3.24-5.588l-3.168-5.458a3957.1 3957.1 0 0 1-2.273-3.921 4.894 4.894 0 0 0-3.748-2.421 4.929 4.929 0 0 0-3.018.664 4.895 4.895 0 0 0-2.237 2.961 4.929 4.929 0 0 0 .498 3.731c.759 1.305 1.517 2.614 2.273 3.92l3.167 5.458c1.079 1.864 2.161 3.725 3.24 5.589l.026.047a54.07 54.07 0 0 0-6.204 4.491 54.087 54.087 0 0 0-9.277 10.03 53.226 53.226 0 0 0-3.904 6.366 53.467 53.467 0 0 0-4.531 12.014c-.901 3.679 2.08 6.983 5.868 6.983h92.795c3.79 0 6.781-3.308 5.879-6.989Z"/></mask><g mask="url(#c)"><path fill="url(#d)" d="M522.966 180.154H408.76v64.255h114.206v-64.255Z"/><g filter="url(#e)" opacity=".8"><path fill="url(#f)" fill-opacity=".4" d="M472.797 200.778c11.32 7.983-20.539 8.86-32.846 26.308-12.307 17.449-2.442 47.754-13.761 39.77-6.989-9.584-8.053-29.026 4.254-46.475s32.752-23.182 42.353-19.603Z"/></g><g filter="url(#g)" opacity=".7"><path fill="url(#h)" fill-opacity=".4" d="M469.386 201.1c-10.357 7.492 18.793 8.314 30.053 24.688 11.261 16.374 2.235 44.812 12.591 37.321 6.395-8.995 7.368-27.239-3.892-43.613-11.261-16.374-29.967-21.754-38.752-18.396Z"/></g><g filter="url(#i)" opacity=".6"><path fill="#8BD8A0" d="M413.946 229.332c-4.348 13.678-6.587 25.175-5.001 25.679 1.587.504 6.397-10.175 10.745-23.853 4.348-13.678 22.283-28.592 20.697-29.097-1.586-.504-22.093 13.593-26.441 27.271Z"/></g><g filter="url(#j)" opacity=".5"><path fill="#8BD8A0" d="M523.196 229.332c4.348 13.678 6.587 25.175 5.001 25.679-1.586.504-6.397-10.175-10.745-23.853-4.348-13.678-22.283-28.592-20.697-29.097 1.587-.504 22.093 13.593 26.441 27.271Z"/></g><g filter="url(#k)" opacity=".1"><path fill="#202124" d="M442.707 204.44c.514-.337-2.205-5.407-6.074-11.325-3.87-5.918-7.423-10.443-7.938-10.106-.514.336 2.205 5.406 6.074 11.324 3.869 5.918 7.423 10.443 7.938 10.107Z"/></g><g filter="url(#l)" opacity=".3"><path fill="#fff" d="M441.107 189.255c4.504 7.398 6.701 10.787 7.202 10.483.5-.305-.886-4.188-5.391-11.586-4.342-9.881-12.175-3.989-11.402-2.908 1.505 2.897 3.832-6.361 9.591 4.011Z"/></g><path fill="url(#m)" fill-opacity=".9" d="M428.563 186.693c.812 2.807 4.149 4.308 7.453 3.352 3.303-.956 5.323-4.007 4.51-6.815-.813-2.808-4.149-4.308-7.453-3.352-3.304.956-5.323 4.007-4.51 6.815Z" opacity=".15"/><path fill="url(#n)" fill-opacity=".9" d="M496.873 187.005c.813 2.807 4.15 4.308 7.453 3.352 3.304-.956 5.323-4.007 4.511-6.815-.813-2.808-4.15-4.308-7.453-3.352-3.304.956-5.323 4.007-4.511 6.815Z" opacity=".15"/><g filter="url(#o)" opacity=".1"><path fill="#202124" d="M494.751 204.804c-.52-.328 2.117-5.441 5.89-11.421 3.773-5.98 7.253-10.562 7.773-10.234.52.328-2.117 5.442-5.89 11.422-3.773 5.979-7.253 10.561-7.773 10.233Z"/></g><mask id="p" width="20" height="13" x="486" y="193" maskUnits="userSpaceOnUse" style="mask-type:alpha"><path fill="#000" d="M497.833 204.902c-2.534-1.58-8.321-4.294-10.897-5.453l1.702-6.025 16.638 6.694c-1.425 2.253-4.909 6.364-7.443 4.784Z"/></mask><g filter="url(#q)" mask="url(#p)" opacity=".3" style="mix-blend-mode:screen"><path fill="#81C995" d="M490.235 200.37c-1.263-.621-2.385-.924-2.506-.677-.121.246.825.775 2.088 1.395 1.263.621 2.364 1.098 2.485.852.121-.247-.804-.95-2.067-1.57Z"/></g><mask id="r" width="20" height="13" x="431" y="193" maskUnits="userSpaceOnUse" style="mask-type:alpha"><path fill="#000" d="M439.349 205.394c2.501-1.633 8.231-4.465 10.783-5.677l-1.827-5.988-16.496 7.035c1.471 2.223 5.039 6.262 7.54 4.63Z"/></mask><g filter="url(#s)" mask="url(#r)" opacity=".3" style="mix-blend-mode:screen"><path fill="#81C995" d="M446.845 200.711c1.25-.646 2.365-.972 2.491-.728.126.244-.809.792-2.059 1.438-1.249.647-2.34 1.147-2.466.902-.127-.244.784-.966 2.034-1.612Z"/></g><g filter="url(#t)" opacity=".3"><path fill="#fff" d="M496.609 189.649c-4.213 7.297-6.281 10.639-6.813 10.331-.532-.307.672-4.147 4.885-11.444 4.802-12.678 14.32-11.002 12.759-4.073-1.231 2.848-5.497-5.049-10.831 5.186Z"/></g></g><path fill="url(#u)" fill-opacity=".7" d="M446.984 224.919c.648-.733.102-2.29-1.22-3.478-1.321-1.188-2.917-1.557-3.564-.823-.648.733-.102 2.29 1.22 3.478 1.321 1.188 2.917 1.556 3.564.823Z"/><path fill="url(#v)" fill-opacity=".7" d="M492.387 223.045c1.322-1.188 1.868-2.745 1.22-3.478-.647-.734-2.243-.365-3.564.823-1.322 1.188-1.868 2.745-1.22 3.478.647.733 2.243.365 3.564-.823Z"/><path fill="#011B04" d="M447.854 228.672c1.602-4.001-.08-6.466-1.122-7.234-3.004-3.718-7.049-.848-8.25.768-1.202 1.576-2.964 4.405-1.242 8.285s8.611 3.193 10.614-1.819ZM489.386 228.761c-1.602-3.96.08-6.466 1.121-7.193 3.004-3.718 7.049-.849 8.251.768 1.201 1.576 2.964 4.405 1.242 8.244-1.723 3.839-8.612 3.193-10.614-1.778v-.041Z" opacity=".09"/><path fill="#202124" d="M498.442 231.5c2.483-1.657 2.883-5.496.881-8.527-2.003-3.031-5.648-4.123-8.131-2.466-2.483 1.657-2.884 5.497-.881 8.528 2.003 3.031 5.647 4.122 8.131 2.465Z"/><path fill="#000" d="M446.895 228.908c2.003-3.031 1.643-6.789-.801-8.446-2.443-1.617-6.007-.485-8.01 2.505-2.003 3.031-1.642 6.79.801 8.447 2.443 1.616 6.008.485 8.01-2.506ZM490.318 228.955c-2.002-3.031-1.642-6.789.801-8.446 2.444-1.616 6.008-.485 8.011 2.506 2.002 3.031 1.642 6.789-.801 8.446-2.443 1.617-6.008.485-8.011-2.506Z"/><path fill="url(#w)" d="M447.599 222.995c-1.154-3.25-3.857-3.285-5.065-2.912 1.023-.597 3-.2 3.939.675.719.695 1.079 1.795 1.171 2.273l-.045-.036Z" opacity=".8"/><path fill="url(#x)" d="M493.444 220.351c-2.844.162-3.765 2.425-3.885 3.516.28-.687 1.321-2.102 3.124-2.465 1.802-.324 4.165 1.738 5.126 2.829l.881-1.011c-.56-1.05-2.403-3.071-5.246-2.869Z"/><path fill="#000" d="M498.408 222.693c1.922 2.344 2.122 5.132 1.882 6.304.481-2.303.321-4.526-1.522-6.789-1.001-1.253-2.563-1.94-3.685-2.263-.16-.041-.36-.081-.48-.122a2.722 2.722 0 0 0-.681-.121c.2.041.44.081.681.121.16 0 .32.081.48.122.801.283 1.883.889 3.365 2.748h-.04Z"/><path fill="#E2DCE1" d="M441.318 221.737c-1.121.242-1.962 1.414-2.203 1.98l.561.849s.4-.687.841-1.132c.441-.444 1.122-.929 1.402-1.131l-.561-.566h-.04ZM495.92 221.765c1.082.202 1.923 1.334 2.203 1.9l-.561.808s-.4-.647-.841-1.091c-.44-.445-1.081-.889-1.362-1.091l.561-.526Z" opacity=".8"/><g fill="#E2DCE1" opacity=".8"><path d="M445.886 227.788a31.97 31.97 0 0 1-1.722.849l-.32.97a5.253 5.253 0 0 0 1.682-.97l.36-.849ZM447.568 223.54a6.382 6.382 0 0 0-.32-.849v.364c.16.283.28.808.32 1.05 0-.08.081-.323 0-.606v.041Z"/></g><g fill="#E2DCE1" opacity=".8"><path d="M491.242 227.874c.521.283 1.362.687 1.722.849l.321.97a5.253 5.253 0 0 1-1.682-.97l-.361-.849ZM489.594 223.625a6.37 6.37 0 0 1 .321-.849v.364c-.161.283-.281.808-.321 1.051 0-.081-.08-.323 0-.606v.04Z"/></g><rect width="128" height="128" x="250.729" y="52.02" fill="#CEEAD6" rx="30.118"/><path fill="#34A853" fill-rule="evenodd" d="M308.33 90.42a6.4 6.4 0 0 1 12.8 0v14.515l12.57-7.258a6.4 6.4 0 0 1 6.4 11.086l-12.57 7.257 12.57 7.257a6.4 6.4 0 1 1-6.4 11.085l-12.57-7.257v14.514a6.4 6.4 0 1 1-12.8 0v-14.514l-12.571 7.258a6.4 6.4 0 0 1-6.4-11.085l12.571-7.258-12.571-7.258a6.4 6.4 0 0 1-2.342-8.743 6.4 6.4 0 0 1 8.742-2.342l12.571 7.258V90.42Z" clip-rule="evenodd"/><path fill="#4285F4" fill-rule="evenodd" d="M438 135.292c-.462 0-.922-.008-1.38-.026l11.632-20.147c3.36-5.819 1.366-13.259-4.452-16.618-5.819-3.36-13.259-1.366-16.618 4.453l-13.175 22.82C407.23 119.392 403 110.336 403 100.292c0-12.467 6.519-23.412 16.333-29.612V-.752h37.334V70.68C466.481 76.88 473 87.825 473 100.292c0 19.33-15.67 35-35 35Z" clip-rule="evenodd"/><circle cx="438" cy="-21.752" r="23.333" stroke="#4285F4" stroke-width="9.333" transform="rotate(-180 438 -21.752)"/><path stroke="#C6FF00" stroke-linecap="round" stroke-width="3.75" d="M438 73.915v-63"/></g><defs><filter id="e" width="66.582" height="80.831" x="414.819" y="193.551" color-interpolation-filters="sRGB" filterUnits="userSpaceOnUse"><feFlood flood-opacity="0" result="BackgroundImageFix"/><feBlend in="SourceGraphic" in2="BackgroundImageFix" result="shape"/><feGaussianBlur result="effect1_foregroundBlur_19979_10972" stdDeviation="3.106"/></filter><filter id="g" width="61.976" height="76.617" x="460.985" y="193.936" color-interpolation-filters="sRGB" filterUnits="userSpaceOnUse"><feFlood flood-opacity="0" result="BackgroundImageFix"/><feBlend in="SourceGraphic" in2="BackgroundImageFix" result="shape"/><feGaussianBlur result="effect1_foregroundBlur_19979_10972" stdDeviation="3.106"/></filter><filter id="i" width="90.493" height="111.421" x="379.215" y="172.827" color-interpolation-filters="sRGB" filterUnits="userSpaceOnUse"><feFlood flood-opacity="0" result="BackgroundImageFix"/><feBlend in="SourceGraphic" in2="BackgroundImageFix" result="shape"/><feGaussianBlur result="effect1_foregroundBlur_19979_10972" stdDeviation="14.61"/></filter><filter id="j" width="90.493" height="111.421" x="467.435" y="172.827" color-interpolation-filters="sRGB" filterUnits="userSpaceOnUse"><feFlood flood-opacity="0" result="BackgroundImageFix"/><feBlend in="SourceGraphic" in2="BackgroundImageFix" result="shape"/><feGaussianBlur result="effect1_foregroundBlur_19979_10972" stdDeviation="14.61"/></filter><filter id="k" width="20.349" height="27.678" x="425.527" y="179.885" color-interpolation-filters="sRGB" filterUnits="userSpaceOnUse"><feFlood flood-opacity="0" result="BackgroundImageFix"/><feBlend in="SourceGraphic" in2="BackgroundImageFix" result="shape"/><feGaussianBlur result="effect1_foregroundBlur_19979_10972" stdDeviation="1.553"/></filter><filter id="l" width="75.385" height="75.681" x="402.242" y="153.296" color-interpolation-filters="sRGB" filterUnits="userSpaceOnUse"><feFlood flood-opacity="0" result="BackgroundImageFix"/><feBlend in="SourceGraphic" in2="BackgroundImageFix" result="shape"/><feGaussianBlur result="effect1_foregroundBlur_19979_10972" stdDeviation="14.61"/></filter><filter id="o" width="20.007" height="27.9" x="491.58" y="180.027" color-interpolation-filters="sRGB" filterUnits="userSpaceOnUse"><feFlood flood-opacity="0" result="BackgroundImageFix"/><feBlend in="SourceGraphic" in2="BackgroundImageFix" result="shape"/><feGaussianBlur result="effect1_foregroundBlur_19979_10972" stdDeviation="1.553"/></filter><filter id="q" width="10.806" height="8.611" x="484.613" y="196.501" color-interpolation-filters="sRGB" filterUnits="userSpaceOnUse"><feFlood flood-opacity="0" result="BackgroundImageFix"/><feBlend in="SourceGraphic" in2="BackgroundImageFix" result="shape"/><feGaussianBlur result="effect1_foregroundBlur_19979_10972" stdDeviation="1.553"/></filter><filter id="s" width="10.761" height="8.696" x="441.693" y="196.796" color-interpolation-filters="sRGB" filterUnits="userSpaceOnUse"><feFlood flood-opacity="0" result="BackgroundImageFix"/><feBlend in="SourceGraphic" in2="BackgroundImageFix" result="shape"/><feGaussianBlur result="effect1_foregroundBlur_19979_10972" stdDeviation="1.553"/></filter><filter id="t" width="42.781" height="45.727" x="477.254" y="166.696" color-interpolation-filters="sRGB" filterUnits="userSpaceOnUse"><feFlood flood-opacity="0" result="BackgroundImageFix"/><feBlend in="SourceGraphic" in2="BackgroundImageFix" result="shape"/><feGaussianBlur result="effect1_foregroundBlur_19979_10972" stdDeviation="6.212"/></filter><radialGradient id="d" cx="0" cy="0" r="1" gradientTransform="rotate(91.332 124.283 341.24) scale(48.4399 76.8984)" gradientUnits="userSpaceOnUse"><stop offset=".307" stop-color="#4FAF53"/><stop offset="1" stop-color="#118016"/><stop offset="1" stop-color="#4FAF53" stop-opacity="0"/></radialGradient><radialGradient id="m" cx="0" cy="0" r="1" gradientTransform="rotate(163.34 203.731 124.293) scale(3.91451 2.83667)" gradientUnits="userSpaceOnUse"><stop stop-color="#fff"/><stop offset=".948" stop-color="#fff" stop-opacity="0"/></radialGradient><radialGradient id="n" cx="0" cy="0" r="1" gradientTransform="rotate(163.34 237.864 129.45) scale(3.91451 2.83667)" gradientUnits="userSpaceOnUse"><stop stop-color="#fff"/><stop offset=".948" stop-color="#fff" stop-opacity="0"/></radialGradient><radialGradient id="u" cx="0" cy="0" r="1" gradientTransform="matrix(-.93984 1.00881 -1.83632 -1.71078 447.31 223.229)" gradientUnits="userSpaceOnUse"><stop stop-color="#93E19F"/><stop offset="1" stop-color="#93E19F" stop-opacity="0"/></radialGradient><radialGradient id="v" cx="0" cy="0" r="1" gradientTransform="matrix(.93902 1.00792 -1.83543 1.70996 491.84 221.573)" gradientUnits="userSpaceOnUse"><stop stop-color="#93E19F"/><stop offset="1" stop-color="#93E19F" stop-opacity="0"/></radialGradient><linearGradient id="b" x1="66.815" x2="129.845" y1="140.397" y2="87.256" gradientUnits="userSpaceOnUse"><stop stop-color="#217BFE"/><stop offset=".27" stop-color="#078EFB"/><stop offset=".777" stop-color="#A190FF"/><stop offset="1" stop-color="#BD99FE"/></linearGradient><linearGradient id="f" x1="429.838" x2="445.65" y1="219.953" y2="231.106" gradientUnits="userSpaceOnUse"><stop stop-color="#A8F0B9"/><stop offset="1" stop-color="#ADEEBC" stop-opacity="0"/></linearGradient><linearGradient id="h" x1="506.916" x2="494.036" y1="221.119" y2="229.263" gradientUnits="userSpaceOnUse"><stop stop-color="#A8F0B9"/><stop offset="1" stop-color="#ADEEBC" stop-opacity="0"/></linearGradient><linearGradient id="w" x1="444.613" x2="445.32" y1="218.438" y2="223.117" gradientUnits="userSpaceOnUse"><stop stop-color="#E2DDE2"/><stop offset="1" stop-color="#E2DDE2" stop-opacity="0"/></linearGradient><linearGradient id="x" x1="494.125" x2="494.125" y1="220.351" y2="224.231" gradientUnits="userSpaceOnUse"><stop stop-color="#373637"/><stop offset="1" stop-color="#373637" stop-opacity="0"/></linearGradient><clipPath id="a"><path fill="#fff" d="M0 0h640v240H0z"/></clipPath></defs></svg>